<?xml version="1.0" standalone="no"?>
<!DOCTYPE svg PUBLIC "-//W3C//DTD SVG 20010904//EN"
 "http://www.w3.org/TR/2001/REC-SVG-20010904/DTD/svg10.dtd">
<svg version="1.0" xmlns="http://www.w3.org/2000/svg"
 width="992.000000pt" height="992.000000pt" viewBox="0 0 992.000000 992.000000"
 preserveAspectRatio="xMidYMid meet">
<metadata>
Created by potrace 1.11, written by Peter Selinger 2001-2013
</metadata>
<g transform="translate(0.000000,992.000000) scale(0.100000,-0.100000)"
fill="#000000" stroke="none">
<path d="M4070 9541 c-110 -25 -156 -42 -257 -96 -274 -145 -564 -458 -747
-807 -90 -169 -181 -421 -223 -609 -25 -116 -26 -459 -1 -569 25 -111 75 -264
119 -357 136 -296 433 -605 694 -723 249 -112 524 -130 768 -49 97 31 275 123
352 181 386 291 607 716 641 1233 11 172 -27 492 -87 730 -78 308 -208 552
-403 753 -209 217 -416 319 -661 328 -83 3 -131 -1 -195 -15z"/>
<path d="M1025 8559 c-263 -38 -474 -199 -685 -520 -347 -528 -436 -1224 -226
-1767 143 -371 403 -664 737 -829 203 -101 368 -143 557 -143 296 0 523 102
762 340 275 273 402 570 417 971 9 266 -20 478 -104 733 -154 473 -498 903
-872 1091 -228 113 -402 151 -586 124z"/>
<path d="M7221 8234 c-308 -56 -618 -190 -866 -374 -380 -283 -669 -723 -751
-1145 -26 -132 -24 -368 5 -501 43 -207 133 -419 258 -606 223 -336 543 -488
959 -457 434 32 817 242 1076 589 226 302 372 655 423 1025 21 147 16 461 -10
598 -36 200 -98 359 -195 502 -131 194 -307 319 -521 370 -79 18 -275 18 -378
-1z"/>
<path d="M3960 5769 c-676 -50 -1384 -296 -1988 -692 -594 -389 -1018 -901
-1196 -1442 -154 -471 -95 -1018 164 -1512 171 -326 434 -649 710 -870 413
-331 879 -584 1340 -726 452 -140 802 -183 1414 -174 451 7 614 25 936 107
555 140 948 360 1214 678 298 359 438 792 439 1362 0 213 -11 330 -59 595
-149 826 -470 1462 -995 1970 -151 146 -230 210 -376 308 -207 138 -443 246
-692 316 -286 81 -564 105 -911 80z"/>
<path d="M8769 5315 c-209 -23 -441 -80 -645 -160 -140 -54 -217 -93 -324
-162 -391 -254 -593 -619 -625 -1133 -29 -459 183 -817 585 -989 152 -64 279
-92 455 -98 112 -4 176 -1 252 11 451 71 871 360 1160 798 88 134 196 345 232
454 95 293 73 648 -55 860 -115 190 -255 284 -529 353 -128 32 -386 85 -389
80 -1 -1 -53 -7 -117 -14z"/>
</g>
</svg>
